<?xml version="1.0" encoding="UTF-8"?>
<svg xmlns="http://www.w3.org/2000/svg" id="Lag_2" viewBox="0 0 989.06 96.72">
  <defs>
    <style>.cls-1{fill:#008ecf;}.cls-2{fill:#57b14c;}</style>
  </defs>
  <g id="Layer_1">
    <path class="cls-1" d="M31.81,96.72c-10.76,0-19.48-8.72-19.48-19.48,0-4.32,1.41-8.32,3.79-11.55l2.69-3.87c9.78-13.7,12.17-24.21,12.89-30.41,.72,6.2,3.3,16.72,13.08,30.41l2.69,3.87c2.38,3.23,3.79,7.22,3.79,11.55,0,10.76-8.72,19.48-19.48,19.48h.03Z"></path>
    <path class="cls-1" d="M313.8,57.51h-7.1l-15.8-45.94-15.8,45.94h-7.1L249.8,.13h8.1l13.9,46.26L287.5,.13h6.8l15.7,46.26L323.9,.13h8.1l-18.2,57.38Z"></path>
    <path class="cls-1" d="M362.49,57.51v-3.79c-4,3.22-7.6,4.27-14.2,4.27s-10.8-1.05-13.9-3.62c-2.4-1.94-3.7-4.92-3.7-8.06,0-6.93,6-11.44,17-11.44h14.8v-3.79c0-5.8-3.6-8.71-12.6-8.71-6.3,0-9.5,1.21-12.4,4.51l-4.9-3.63c4.4-4.59,9.4-5.88,17.4-5.88,13.2,0,19.7,4.59,19.7,13.22v26.92h-7.2Zm0-18.29h-13.8c-7.4,0-11,2.42-11,7.01s3.5,6.77,11.3,6.77c4.2,0,7.9-.24,11-2.66,1.7-1.29,2.5-3.54,2.5-6.85v-4.27Z"></path>
    <path class="cls-1" d="M395.99,57.51c-8.4,0-12.6-4.76-12.6-10.64V22.53h-6.2v-4.43h6.2V5.69h7.2v12.41h10.5v4.43h-10.5v24.18c0,3.62,2.1,5.8,6.7,5.8h3.8v5h-5.1Z"></path>
    <path class="cls-1" d="M414.08,39.21c0,8.7,5.1,13.7,14.5,13.7,5.7,0,9-1.37,12.9-4.51l4.9,3.46c-5,4.03-9.6,6.12-18,6.12-13,0-21.5-6.29-21.5-20.31,0-12.81,7.7-20.31,20.2-20.31s20.2,7.41,20.2,19.18v2.66h-33.2Zm24.5-10.96c-1.9-3.62-6.3-5.96-11.5-5.96s-9.6,2.34-11.5,5.96c-1.1,2.18-1.3,3.38-1.5,6.61h26c-.2-3.22-.4-4.43-1.5-6.61Z"></path>
    <path class="cls-1" d="M484.08,25.43c-2.7-2.18-4.7-2.9-8.5-2.9-7.2,0-11.8,4.59-11.8,10.64v24.34h-7.2V17.86h7.2v4.83c2.7-3.3,8.1-5.32,13.8-5.32,4.7,0,8.3,.89,11.8,3.71l-5.3,4.35Z"></path>
    <path class="cls-2" d="M504.88,5.61V57.51h-7.6V5.61h-20.6V.13h48.8V5.61h-20.6Z"></path>
    <path class="cls-2" d="M526.36,39.21c0,8.7,5.1,13.7,14.5,13.7,5.7,0,9-1.37,12.9-4.51l4.9,3.46c-5,4.03-9.6,6.12-18,6.12-13,0-21.5-6.29-21.5-20.31,0-12.81,7.7-20.31,20.2-20.31s20.2,7.41,20.2,19.18v2.66h-33.2Zm24.5-10.96c-1.9-3.62-6.3-5.96-11.5-5.96s-9.6,2.34-11.5,5.96c-1.1,2.18-1.3,3.38-1.5,6.61h26c-.2-3.22-.4-4.43-1.5-6.61Z"></path>
    <path class="cls-2" d="M588.96,57.99c-12.4,0-21.8-6.77-21.8-20.31s9.4-20.31,21.8-20.31c6.8,0,11.1,1.45,16.2,5.88l-4.9,3.71c-3.7-3.3-6.6-4.43-11.3-4.43s-8.8,1.53-11.4,4.51c-2.3,2.58-3.2,5.64-3.2,10.64s.9,8.06,3.2,10.64c2.6,2.98,6.6,4.51,11.4,4.51s7.6-1.21,11.3-4.51l4.9,3.79c-5.1,4.43-9.4,5.88-16.2,5.88Z"></path>
    <path class="cls-2" d="M645.36,57.51v-24.5c0-6.93-4.6-10.48-12-10.48s-12.3,3.63-12.3,10.48v24.5h-7.2V.13h7.2V22.21c3.6-3.3,8.3-4.84,13.8-4.84,11.1,0,17.7,5.72,17.7,14.67v25.47h-7.2Z"></path>
    <path class="cls-2" d="M696.56,57.51v-24.42c0-7.01-4.7-10.56-12.1-10.56s-12.2,3.63-12.2,10.56v24.42h-7.2V17.86h7.2v4.35c3.5-3.22,8.3-4.84,13.8-4.84s9.6,1.29,12.6,3.71c3.5,2.74,5.1,6.45,5.1,11.04v25.39h-7.2Z"></path>
    <path class="cls-2" d="M747.86,53.48c-3.4,2.74-8.1,4.51-14.1,4.51s-10.7-1.77-14.1-4.51c-5-4.11-6-9.67-6-15.8s1-11.69,6-15.79c3.4-2.74,8.1-4.51,14.1-4.51s10.7,1.77,14.1,4.51c5,4.11,6,9.67,6,15.79s-1,11.69-6,15.8Zm-5.1-28.05c-2.3-1.85-5.5-2.9-9-2.9s-6.6,1.05-8.9,2.9c-3.6,2.9-4,7.82-4,12.25s.4,9.35,4,12.25c2.3,1.85,5.4,2.9,8.9,2.9s6.7-1.05,9-2.9c3.6-2.9,3.9-7.82,3.9-12.25s-.3-9.35-3.9-12.25Z"></path>
    <path class="cls-2" d="M776.56,57.51c-8.6,0-12.5-4.51-12.5-10.56V.13h7.2V46.71c0,3.87,1.6,5.8,6.6,5.8h3.9v5h-5.2Z"></path>
    <path class="cls-2" d="M819.56,53.48c-3.4,2.74-8.1,4.51-14.1,4.51s-10.7-1.77-14.1-4.51c-5-4.11-6-9.67-6-15.8s1-11.69,6-15.79c3.4-2.74,8.1-4.51,14.1-4.51s10.7,1.77,14.1,4.51c5,4.11,6,9.67,6,15.79s-1,11.69-6,15.8Zm-5.1-28.05c-2.3-1.85-5.5-2.9-9-2.9s-6.6,1.05-8.9,2.9c-3.6,2.9-4,7.82-4,12.25s.4,9.35,4,12.25c2.3,1.85,5.4,2.9,8.9,2.9s6.7-1.05,9-2.9c3.6-2.9,3.9-7.82,3.9-12.25s-.3-9.35-3.9-12.25Z"></path>
    <path class="cls-2" d="M851.76,75.72c-7.4,0-11.5-1.53-16.7-5.32l4.7-3.71c3.6,2.58,6.1,3.95,11.8,3.95,9.5,0,13.5-5.4,13.5-12.17v-6.2c-4,4.11-8.5,5.16-13.8,5.16-5,0-9.3-1.45-11.9-3.54-4.9-3.95-6-10.07-6-16.52s1.1-12.57,6-16.52c2.6-2.1,7-3.46,12-3.46,5.4,0,9.8,.97,13.8,5.16v-4.67h7.1V58.72c0,9.83-7.6,17-20.5,17Zm1.1-53.19c-10.7,0-12.3,7.41-12.3,14.83s1.6,14.83,12.3,14.83,12.2-7.41,12.2-14.83-1.5-14.83-12.2-14.83Z"></path>
    <path class="cls-2" d="M884.86,6.57V.05h8.1V6.57h-8.1Zm.4,50.93V17.86h7.2V57.51h-7.2Z"></path>
    <path class="cls-2" d="M910.06,39.21c0,8.7,5.1,13.7,14.5,13.7,5.7,0,9-1.37,12.9-4.51l4.9,3.46c-5,4.03-9.6,6.12-18,6.12-13,0-21.5-6.29-21.5-20.31,0-12.81,7.7-20.31,20.2-20.31s20.2,7.41,20.2,19.18v2.66h-33.2Zm24.5-10.96c-1.9-3.62-6.3-5.96-11.5-5.96s-9.6,2.34-11.5,5.96c-1.1,2.18-1.3,3.38-1.5,6.61h26c-.2-3.22-.4-4.43-1.5-6.61Z"></path>
    <path class="cls-2" d="M969.06,57.99c-8.3,0-14.8-1.53-20.2-5.72l4.8-3.87c3.9,3.3,9.2,4.59,15.3,4.59,8.1,0,13.1-2.34,13.1-7.01,0-3.46-2.5-5.4-8.2-5.8l-8.1-.56c-9.6-.64-14.7-4.11-14.7-10.64,0-7.25,7.6-11.61,18.1-11.61,7,0,13.3,1.37,17.7,4.27l-4.7,3.79c-3.5-2.18-8-3.14-13.1-3.14-7.2,0-11,2.5-11,6.53,0,3.38,2.4,5.4,8.6,5.8l7.9,.56c8.6,.64,14.5,3.3,14.5,10.72s-8.1,12.09-20,12.09Z"></path>
    <path class="cls-2" d="M40.4,37.83l-8.7-20.87-9,20.87-3.9,9.43-4.3,10.15H0L25.9,.04h10.9l26,57.38h-14.5l-4.2-10.15-3.7-9.43Z"></path>
    <path class="cls-2" d="M95.4,57.42v-3.95c-3.6,3.22-7.4,4.43-12.9,4.43-5.1,0-9.9-1.45-12.8-3.79-5.2-4.19-5.3-11.44-5.3-17.73s.1-13.46,5.3-17.65c2.9-2.34,7.6-3.79,12.7-3.79s9.3,1.13,12.7,4.19V.04h13V57.42h-12.7Zm-9.2-33.04c-7.8,0-8.8,5.16-8.8,12.01s1,12.09,8.8,12.09,8.9-5.24,8.9-12.09-1.1-12.01-8.9-12.01Z"></path>
    <path class="cls-2" d="M128.9,39.69c0,5.4,4.1,9.35,11.4,9.35,5.7,0,8.5-1.29,11.8-3.95l7.9,6.21c-5.3,4.27-10.4,6.61-19.8,6.61-12.3,0-24.1-4.51-24.1-21.52,0-13.7,9.2-21.44,22.7-21.44,14.5,0,22.7,8.54,22.7,20.07v4.67h-32.6Zm18.6-11.69c-1.4-2.5-4.3-4.35-8.7-4.35s-7.3,1.85-8.7,4.35c-.8,1.53-1.1,2.66-1.2,4.51h19.8c-.1-1.85-.4-2.98-1.2-4.51Z"></path>
    <path class="cls-2" d="M206.8,54.11c-2.9,2.34-7.6,3.79-12.7,3.79s-9.2-1.13-12.6-4.19v19.1h-13V15.43h12.6v3.95c3.6-3.22,7.5-4.43,13-4.43,5.1,0,9.8,1.45,12.7,3.79,5.2,4.19,5.3,11.36,5.3,17.65s-.1,13.54-5.3,17.73Zm-16.5-29.74c-7.8,0-8.8,5.16-8.8,12.01s1,12.09,8.8,12.09,8.8-5.24,8.8-12.09-1-12.01-8.8-12.01Z"></path>
    <path class="cls-2" d="M237.8,57.42c-10.6,0-15.1-6.04-15.1-12.01V24.62h-5.5v-7.98h5.5V0h13V16.64h9.2v7.98h-9.2v20.15c0,2.42,1.4,3.79,4.5,3.79h4.7v8.87h-7.1Z"></path>
  </g>
</svg>
