<?xml version="1.0" encoding="UTF-8" standalone="no"?>
<!-- Created with Inkscape (http://www.inkscape.org/) -->

<svg
   width="210mm"
   height="297mm"
   viewBox="0 0 210 297"
   version="1.1"
   id="svg8"
   inkscape:version="1.1.1 (3bf5ae0d25, 2021-09-20)"
   sodipodi:docname="Rodrig Logo ny farge.svg"
   xmlns:inkscape="http://www.inkscape.org/namespaces/inkscape"
   xmlns:sodipodi="http://sodipodi.sourceforge.net/DTD/sodipodi-0.dtd"
   xmlns="http://www.w3.org/2000/svg"
   xmlns:svg="http://www.w3.org/2000/svg"
   xmlns:rdf="http://www.w3.org/1999/02/22-rdf-syntax-ns#"
   xmlns:cc="http://creativecommons.org/ns#"
   xmlns:dc="http://purl.org/dc/elements/1.1/">
  <defs
     id="defs2">
    <clipPath
       id="clipPath843"
       clipPathUnits="userSpaceOnUse">
      <path
         inkscape:connector-curvature="0"
         id="path841"
         d="M 0,595.28 H 841.89 V 0 H 0 Z" />
    </clipPath>
  </defs>
  <sodipodi:namedview
     id="base"
     pagecolor="#ffffff"
     bordercolor="#666666"
     borderopacity="1.0"
     inkscape:pageopacity="0.0"
     inkscape:pageshadow="2"
     inkscape:zoom="0.98994949"
     inkscape:cx="238.90108"
     inkscape:cy="508.61181"
     inkscape:document-units="mm"
     inkscape:current-layer="layer1"
     showgrid="false"
     inkscape:window-width="1920"
     inkscape:window-height="1009"
     inkscape:window-x="-8"
     inkscape:window-y="-3"
     inkscape:window-maximized="1"
     inkscape:pagecheckerboard="0" />
  <metadata
     id="metadata5">
    <rdf:RDF>
      <cc:Work
         rdf:about="">
        <dc:format>image/svg+xml</dc:format>
        <dc:type
           rdf:resource="http://purl.org/dc/dcmitype/StillImage" />
        <dc:title />
      </cc:Work>
    </rdf:RDF>
  </metadata>
  <g
     inkscape:label="Layer 1"
     inkscape:groupmode="layer"
     id="layer1">
    <g
       transform="matrix(0.35277777,0,0,-0.35277777,117.93623,122.85249)"
       id="g825"
       style="fill:#ff6600">
      <path
         inkscape:connector-curvature="0"
         id="path827"
         style="fill:#ff6600;fill-opacity:1;fill-rule:nonzero;stroke:none"
         d="m 0,0 h -399.869 l 36.826,212.707 h 399.87 z" />
    </g>
    <g
       transform="matrix(0.35277777,0,0,-0.35277777,116.80279,121.07032)"
       id="g829">
      <path
         inkscape:connector-curvature="0"
         id="path831"
         style="fill:#ffffff;fill-opacity:1;fill-rule:nonzero;stroke:none"
         d="M 0,0 35.077,202.604 H 371.323 L 336.246,0 Z" />
    </g>
    <g
       transform="matrix(0.35277777,0,0,-0.35277777,249.91438,47.814185)"
       id="g833"
       style="fill:#ff6600">
      <path
         inkscape:connector-curvature="0"
         id="path835"
         style="fill:#ff6600;fill-opacity:1;fill-rule:nonzero;stroke:none"
         d="m 0,0 h -346.499 l -36.827,-212.707 h 346.5 z M -12.003,-10.103 -45.33,-202.604 h -325.993 l 33.328,192.501 z" />
    </g>
    <g
       transform="matrix(0.35277777,0,0,-0.35277777,15.861812,70.248629)"
       id="g845">
      <path
         inkscape:connector-curvature="0"
         id="path847"
         style="fill:#ffffff;fill-opacity:1;fill-rule:nonzero;stroke:none"
         d="m 0,0 c -2.264,0 -10.67,-0.324 -12.61,-0.485 l -5.496,-31.039 c 1.778,-0.164 9.538,-0.325 11.317,-0.325 15.842,0 25.703,3.881 25.703,20.855 C 18.914,-2.587 12.609,0 0,0 M 19.238,-48.825 35.566,-94.41 c 0.162,-0.488 0.323,-0.811 0.323,-1.297 0,-1.293 -0.97,-2.423 -2.91,-2.423 H 9.538 c -1.778,0 -1.939,1.617 -2.587,3.232 l -14.55,40.9 H -7.76 c -0.646,0 -1.616,-0.161 -2.91,-0.161 -3.394,0 -8.407,0.325 -11.478,0.325 l -7.114,-41.064 c -0.322,-1.78 -2.101,-3.232 -3.879,-3.232 h -21.017 c -1.616,0 -2.586,1.13 -2.586,2.584 v 0.486 0.162 l 19.076,108.477 c 0.97,5.498 3.396,6.951 8.569,7.76 7.76,1.293 21.661,2.101 33.302,2.101 24.251,0 42.357,-9.051 42.357,-30.878 0,-19.237 -8.407,-34.918 -27.322,-41.387" />
    </g>
    <g
       transform="matrix(0.35277777,0,0,-0.35277777,56.350328,70.534061)"
       id="g849">
      <path
         inkscape:connector-curvature="0"
         id="path851"
         style="fill:#ffffff;fill-opacity:1;fill-rule:nonzero;stroke:none"
         d="m 0,0 c -13.579,0 -21.179,-7.436 -24.735,-27.645 l -3.394,-19.236 c -0.809,-4.366 -1.131,-8.084 -1.131,-11.318 0,-12.125 5.494,-16.329 16.165,-16.329 13.58,0 21.501,8.246 24.896,27.647 l 3.396,19.236 c 0.646,4.042 1.132,7.598 1.132,10.67 C 16.329,-4.849 10.832,0 0,0 M 43.002,-27.645 39.608,-46.881 C 32.98,-84.712 12.933,-98.775 -17.46,-98.775 c -22.147,0 -39.769,13.092 -39.769,39.606 0,3.88 0.323,7.922 1.132,12.288 l 3.394,19.236 c 7.114,40.093 30.069,51.895 57.069,51.895 21.661,0 39.77,-11.802 39.77,-39.285 0,-3.88 -0.325,-8.084 -1.134,-12.61" />
    </g>
    <g
       transform="matrix(0.35277777,0,0,-0.35277777,94.101854,70.248629)"
       id="g853">
      <path
         inkscape:connector-curvature="0"
         id="path855"
         style="fill:#ffffff;fill-opacity:1;fill-rule:nonzero;stroke:none"
         d="m 0,0 c -4.042,0 -9.215,-0.163 -11.478,-0.324 l -13.418,-75.497 c 2.262,-0.161 7.436,-0.324 11.478,-0.324 15.519,0 24.895,5.821 28.776,27.645 l 3.718,20.854 c 0.647,3.557 0.97,6.79 0.97,9.539 C 20.046,-4.042 12.124,0 0,0 M 46.72,-27.646 43.002,-48.5 c -6.466,-36.535 -24.734,-51.084 -60.624,-51.084 -13.418,0 -27.482,1.292 -33.95,2.422 -2.423,0.484 -3.879,1.455 -3.879,4.043 0,0.484 0,0.971 0.161,1.615 l 18.916,106.861 c 0.646,3.72 2.423,5.173 5.658,5.658 6.79,1.131 21.501,2.425 34.919,2.425 26.836,0 43.649,-14.387 43.649,-39.444 0,-3.72 -0.323,-7.6 -1.132,-11.642" />
    </g>
    <g
       transform="matrix(0.35277777,0,0,-0.35277777,157.88795,70.248629)"
       id="g857"
       style="fill:#ff6600">
      <path
         inkscape:connector-curvature="0"
         id="path859"
         style="fill:#ff6600;fill-opacity:1;fill-rule:nonzero;stroke:none"
         d="m 0,0 c -2.263,0 -10.669,-0.324 -12.609,-0.485 l -5.495,-31.039 c 1.777,-0.164 9.536,-0.325 11.315,-0.325 15.842,0 25.704,3.881 25.704,20.855 C 18.915,-2.587 12.61,0 0,0 M 19.239,-48.825 35.566,-94.41 c 0.163,-0.488 0.325,-0.811 0.325,-1.297 0,-1.293 -0.972,-2.423 -2.91,-2.423 H 9.539 c -1.777,0 -1.938,1.617 -2.588,3.232 l -14.55,40.9 h -0.16 c -0.646,0 -1.615,-0.161 -2.91,-0.161 -3.394,0 -8.406,0.325 -11.477,0.325 l -7.115,-41.064 c -0.322,-1.78 -2.101,-3.232 -3.88,-3.232 h -21.015 c -1.617,0 -2.587,1.13 -2.587,2.584 v 0.486 0.162 l 19.076,108.477 c 0.971,5.498 3.396,6.951 8.569,7.76 7.759,1.293 21.661,2.101 33.302,2.101 24.25,0 42.357,-9.051 42.357,-30.878 0,-19.237 -8.407,-34.918 -27.322,-41.387" />
    </g>
    <g
       transform="matrix(0.35277777,0,0,-0.35277777,193.47201,63.576331)"
       id="g861"
       style="fill:#ff6600">
      <path
         inkscape:connector-curvature="0"
         id="path863"
         style="fill:#ff6600;fill-opacity:1;fill-rule:nonzero;stroke:none"
         d="m 0,0 -20.046,-113.812 c -0.323,-1.779 -1.939,-3.231 -3.719,-3.231 h -21.661 c -1.456,0 -2.265,1.129 -2.265,2.422 v 0.809 L -27.645,0 c 0.324,1.779 1.618,3.072 3.394,3.072 H -2.586 C -0.97,3.072 0,2.101 0,0.648 Z" />
    </g>
    <g
       transform="matrix(0.35277777,0,0,-0.35277777,230.42686,64.146526)"
       id="g865"
       style="fill:#ff6600">
      <path
         inkscape:connector-curvature="0"
         id="path867"
         style="fill:#ff6600;fill-opacity:1;fill-rule:nonzero;stroke:none"
         d="m 0,0 -3.071,-17.136 c -0.325,-1.779 -1.294,-2.102 -2.75,-2.102 h -0.486 c -7.758,0.323 -19.723,1.293 -33.464,1.293 -13.094,0 -22.147,-5.173 -26.027,-27.483 l -3.556,-20.209 c -0.647,-4.041 -1.132,-7.596 -1.132,-10.668 0,-13.418 6.628,-16.814 14.388,-16.814 4.526,0 8.73,0.161 12.611,0.485 l 6.466,37.183 c 0.323,1.778 1.94,3.233 3.716,3.233 h 20.695 c 1.616,0 2.587,-1.131 2.587,-2.587 v -0.646 l -9.539,-54.32 c -0.323,-2.264 -1.294,-3.233 -3.88,-3.718 -9.053,-1.777 -20.693,-3.392 -36.859,-3.392 -16.491,0 -38.153,10.18 -38.153,39.282 0,3.719 0.323,7.76 1.132,12.126 l 3.557,20.045 c 7.922,44.62 32.009,51.571 58.361,51.571 16.166,0 27.319,-2.426 33.14,-3.718 C -1.133,2.102 0,1.616 0,0.485 Z" />
    </g>
  </g>
</svg>
